<svg xmlns="http://www.w3.org/2000/svg" width="863" height="865" viewBox="0 0 863 865">
<g>
<path d="M 429.73 572.92 C416.35,574.42 403.51,574.32 402.19,572.73 C401.10,571.42 401.42,543.74 402.54,541.93 C402.86,541.42 404.41,541.00 405.99,541.00 C409.18,541.00 413.26,536.83 412.36,534.48 C412.06,533.72 409.73,532.76 407.16,532.35 C402.72,531.64 402.64,531.58 405.50,530.92 C407.15,530.55 411.51,530.18 415.19,530.12 C420.90,530.02 422.12,529.67 423.44,527.78 C425.33,525.09 425.46,522.11 423.73,521.45 C423.04,521.18 418.68,522.10 414.06,523.48 C404.42,526.37 403.00,526.52 403.00,524.66 C403.00,523.87 405.56,522.60 409.25,521.56 C420.24,518.47 422.45,517.47 423.63,515.12 C425.56,511.24 423.91,507.59 419.93,506.92 L 416.50 506.33 L 420.25 504.65 C423.66,503.12 424.00,502.62 424.00,499.05 C424.00,496.89 423.64,494.90 423.20,494.62 C422.76,494.35 418.15,495.18 412.95,496.47 C407.75,497.75 403.29,498.60 403.04,498.36 C402.78,498.11 403.18,496.94 403.92,495.75 C404.89,494.21 404.95,493.48 404.14,493.21 C403.51,493.00 403.00,491.75 403.00,490.42 L 403.00 488.00 L 416.94 488.00 C430.22,488.00 430.96,487.89 432.44,485.78 C433.30,484.56 434.00,482.08 434.00,480.28 C434.00,476.98 435.31,475.23 440.41,471.70 C441.84,470.71 443.96,468.01 445.11,465.70 C446.27,463.39 450.04,458.93 453.48,455.79 C459.95,449.88 462.00,445.62 462.00,438.04 C462.00,436.34 463.14,433.23 464.54,431.12 C469.15,424.16 468.69,414.88 463.51,410.01 C461.83,408.43 461.00,406.58 461.00,404.39 C461.00,399.95 459.49,396.32 455.96,392.31 C453.83,389.88 452.99,387.89 452.98,385.22 C452.93,377.31 447.78,370.36 440.19,367.94 C438.16,367.29 434.92,365.30 433.00,363.52 C424.28,355.42 410.27,356.51 405.33,365.68 L 403.50 369.09 L 402.85 365.93 C401.73,360.44 402.01,294.84 403.17,292.68 C404.16,290.83 405.00,290.74 417.36,291.29 C436.14,292.13 457.85,297.92 472.67,306.05 C507.45,325.12 532.05,355.20 542.57,391.50 C547.10,407.13 548.28,417.67 547.73,437.38 C547.29,453.24 546.84,457.00 544.18,467.53 C539.40,486.42 536.61,492.90 526.21,509.20 C516.54,524.35 512.80,528.72 499.50,540.42 C485.48,552.74 477.53,557.87 463.98,563.33 C450.02,568.96 439.94,571.79 429.73,572.92 ZM 400.80 484.38 L 400.50 487.50 L 393.00 487.56 C377.36,487.69 367.20,486.95 366.08,485.60 C365.47,484.87 364.51,480.55 363.94,476.01 C362.79,466.80 359.47,458.53 353.25,449.36 C344.27,436.11 341.02,426.97 341.03,415.00 C341.05,399.57 346.11,386.93 356.38,376.66 C364.80,368.25 381.23,361.52 391.74,362.19 L 396.50 362.50 L 396.76 421.35 C397.01,479.68 397.03,480.20 399.06,480.73 C400.66,481.15 401.04,481.94 400.80,484.38 ZM 371.67 479.33 C372.03,479.70 376.31,480.00 381.18,480.00 L 390.02 480.00 L 389.50 370.50 L 385.42 370.20 C378.08,369.66 370.63,373.34 362.80,381.37 C358.98,385.29 354.75,390.36 353.39,392.64 C349.89,398.54 347.68,409.94 348.37,418.54 C349.11,427.66 350.92,432.62 356.33,440.27 C363.96,451.06 371.00,468.23 371.00,476.04 C371.00,477.49 371.30,478.97 371.67,479.33 ZM 422.96 480.36 C417.99,481.35 413.52,481.12 412.20,479.80 C410.89,478.49 410.75,473.08 411.84,466.00 C412.51,461.63 412.62,461.51 415.82,461.82 C422.41,462.47 424.04,457.90 418.55,454.16 C412.03,449.72 410.95,445.77 413.52,435.80 C414.03,433.83 413.62,432.28 412.00,430.00 C410.20,427.47 409.91,426.10 410.44,422.56 C411.12,418.02 412.95,415.71 416.81,414.53 C420.58,413.38 419.35,409.62 415.00,409.00 L 411.50 408.50 L 411.72 400.00 C412.06,386.94 412.04,385.99 411.43,378.48 C410.89,371.95 411.03,371.26 413.38,368.73 C415.29,366.66 416.84,366.00 419.79,366.00 C421.92,366.00 423.96,366.29 424.31,366.64 C424.66,367.00 423.61,368.81 421.98,370.68 C418.60,374.52 418.50,374.93 420.30,377.39 C421.52,379.06 421.87,379.01 426.55,376.50 C432.02,373.56 437.11,373.53 441.50,376.41 C444.24,378.21 446.46,384.92 445.43,388.30 C444.18,392.37 443.18,392.93 439.99,391.35 C438.29,390.50 435.07,390.02 432.28,390.19 C427.70,390.49 427.50,390.63 427.50,393.50 C427.50,396.33 427.77,396.53 432.14,397.03 C439.20,397.85 440.34,399.26 439.55,406.22 C439.00,411.15 439.16,412.12 440.61,412.68 C443.27,413.70 446.68,408.94 447.49,403.06 C448.02,399.23 448.60,398.00 449.89,398.00 C454.32,398.00 455.36,404.42 452.00,411.00 C449.50,415.91 449.50,416.66 452.06,418.03 C453.59,418.85 454.50,418.83 455.55,417.96 C459.77,414.46 462.08,423.92 458.00,428.00 C455.11,430.89 453.79,430.49 451.19,425.93 C449.17,422.40 448.48,421.92 445.79,422.19 C441.00,422.67 440.11,425.15 443.34,428.99 L 446.04 432.20 L 444.01 435.48 C442.01,438.72 442.01,438.79 443.91,441.13 L 445.83 443.50 L 448.87 441.25 C452.65,438.46 454.00,438.41 454.00,441.05 C454.00,445.35 447.30,454.18 446.27,451.24 C446.02,450.54 444.94,449.50 443.85,448.92 C440.45,447.10 439.00,449.42 439.00,456.67 C439.00,462.21 438.65,463.44 436.47,465.62 C434.11,467.98 433.50,468.11 427.61,467.48 C422.02,466.88 421.21,467.01 420.58,468.65 C420.04,470.04 420.80,471.28 423.59,473.63 C427.90,477.26 427.70,479.41 422.96,480.36 ZM 386.76 512.86 C380.85,514.59 375.77,516.00 375.48,516.00 C374.49,516.00 373.85,513.21 374.18,510.38 C374.48,507.79 375.21,507.36 384.50,504.40 C390.00,502.65 395.96,500.91 397.75,500.53 C400.99,499.84 401.00,499.85 401.00,503.89 L 401.00 503.95 C401.00,505.40 401.00,506.40 400.61,507.22 C399.70,509.10 396.69,509.96 386.76,512.86 ZM 389.50 525.68 C374.56,530.15 374.00,530.11 374.00,524.36 C374.00,521.19 374.24,520.99 379.75,519.44 C382.91,518.55 388.36,516.96 391.86,515.91 C400.92,513.19 401.17,513.25 400.81,518.19 L 400.50 522.38 ZM 474.00 386.18 C474.00,387.47 474.94,387.23 484.44,383.50 C496.27,378.85 498.00,377.64 498.00,374.01 C498.00,371.00 495.78,369.00 492.44,369.00 C490.76,369.00 474.00,384.61 474.00,386.18 ZM 448.04 355.00 L 448.06 357.50 L 450.26 354.56 C451.46,352.94 454.79,348.93 457.65,345.65 C463.37,339.09 464.10,337.50 462.88,334.21 C461.60,330.74 455.73,331.10 454.07,334.74 C451.82,339.68 448.03,352.44 448.04,355.00 ZM 493.00 428.12 C498.23,429.03 503.48,429.82 504.68,429.88 C507.64,430.04 510.00,427.45 510.00,424.04 C510.00,421.11 508.52,419.99 504.67,420.01 C501.06,420.04 483.92,424.57 483.70,425.55 C483.59,426.06 487.77,427.21 493.00,428.12 ZM 407.14 335.60 C408.45,340.82 409.64,343.76 410.20,343.20 C411.51,341.89 414.18,325.66 413.81,321.22 C413.54,317.98 413.14,317.46 410.69,317.18 C404.49,316.47 403.56,321.32 407.14,335.60 ZM 367.00 348.13 C367.00,350.29 364.39,348.50 358.41,342.25 C353.04,336.64 351.99,335.00 352.22,332.52 C352.43,330.25 353.19,329.29 355.40,328.52 C357.97,327.63 358.52,327.82 360.31,330.21 C362.07,332.57 367.00,345.77 367.00,348.13 ZM 313.15 420.88 C302.19,423.22 297.66,421.65 299.62,416.19 C300.58,413.53 300.69,413.50 308.80,413.77 C314.66,413.96 317.57,414.50 318.93,415.67 C321.54,417.91 319.85,419.44 313.15,420.88 ZM 331.50 376.07 C330.65,376.41 330.14,376.63 329.61,376.70 C328.71,376.82 327.74,376.49 324.83,375.48 C324.60,375.40 324.35,375.32 324.09,375.23 C315.98,372.44 312.54,367.39 317.08,364.96 C319.43,363.70 323.57,365.96 330.00,372.00 C333.27,375.07 333.37,375.34 331.50,376.07 ZM 400.81 537.25 C400.50,540.46 400.42,540.50 394.84,540.80 C389.91,541.06 388.98,540.80 387.59,538.82 C384.65,534.62 385.42,534.00 393.56,534.00 L 401.13 534.00 ZM 382.76 500.03 C381.81,500.56 379.45,501.00 377.51,501.00 C374.72,501.00 374.00,500.61 374.00,499.08 C374.00,494.42 374.79,494.00 383.61,494.00 C392.82,494.00 394.35,495.18 388.25,497.58 C386.19,498.39 383.72,499.49 382.76,500.03 Z" fill="rgb(1,4,1)"/>
<path d="M 424.40 358.76 C419.33,357.59 413.92,358.70 409.51,362.17 C408.73,362.78 408.06,363.31 407.48,363.92 C404.00,367.63 404.00,374.61 404.00,424.86 L 404.00 425.47 C404.00,461.99 403.66,480.00 402.98,480.00 C402.04,480.00 401.82,400.07 402.18,344.61 C402.26,355.40 402.47,364.08 402.85,365.93 L 403.50 369.09 L 405.33 365.68 C408.83,359.18 416.90,356.74 424.40,358.76 ZM 387.05 499.02 C374.50,502.98 373.00,502.95 373.00,498.70 C373.00,493.43 374.12,493.00 387.70,493.00 C397.97,493.00 400.00,493.25 400.00,494.50 C400.00,495.33 399.21,496.01 398.25,496.02 C397.29,496.03 392.25,497.38 387.05,499.02 ZM 382.76 500.03 C383.72,499.49 386.19,498.39 388.25,497.58 C394.35,495.18 392.82,494.00 383.61,494.00 C374.79,494.00 374.00,494.42 374.00,499.08 C374.00,500.61 374.72,501.00 377.51,501.00 C379.45,501.00 381.81,500.56 382.76,500.03 ZM 331.50 376.07 C333.37,375.34 333.27,375.07 330.00,372.00 C323.57,365.96 319.43,363.70 317.08,364.96 C312.67,367.32 315.79,372.15 323.41,374.98 C321.46,374.43 319.92,374.07 319.29,374.05 C316.45,373.98 312.84,370.12 313.21,367.55 C313.37,366.46 314.71,364.89 316.18,364.07 C318.59,362.72 319.21,362.73 322.18,364.18 C326.57,366.32 340.08,378.06 339.41,379.15 C339.28,379.36 339.18,379.54 339.03,379.65 C338.45,380.11 337.13,379.65 330.01,377.12 L 329.50 376.94 C329.26,376.86 329.02,376.77 328.78,376.69 C329.09,376.73 329.35,376.74 329.61,376.70 C330.14,376.63 330.65,376.41 331.50,376.07 ZM 423.76 514.85 C425.01,512.05 423.91,508.63 421.55,508.16 C420.60,507.97 416.08,508.98 411.52,510.41 L 410.71 510.66 C404.56,512.58 402.65,513.18 402.17,512.59 C401.96,512.33 402.04,511.83 402.15,511.10 C402.16,511.03 402.17,510.96 402.18,510.88 C402.44,509.17 404.02,508.33 410.50,506.47 C414.90,505.21 419.62,504.03 421.00,503.84 C423.11,503.55 423.55,502.90 423.82,499.62 C423.99,497.48 423.77,495.37 423.32,494.92 C422.89,494.49 418.68,495.10 413.78,496.27 C418.63,495.10 422.78,494.37 423.20,494.62 C423.64,494.90 424.00,496.89 424.00,499.05 C424.00,502.62 423.66,503.12 420.25,504.65 L 416.50 506.33 L 419.93 506.92 C423.82,507.58 425.48,511.08 423.76,514.85 ZM 313.15 420.88 C319.85,419.44 321.54,417.91 318.93,415.67 C318.06,414.93 316.57,414.44 314.10,414.13 C320.65,414.84 327.00,416.17 327.00,417.05 C327.00,418.40 325.95,418.73 316.25,420.40 C314.99,420.62 313.70,420.83 312.45,421.02 C312.68,420.97 312.91,420.93 313.15,420.88 ZM 412.47 534.95 C412.46,534.94 412.45,534.92 412.45,534.91 C412.16,534.44 409.69,533.76 406.96,533.40 C403.98,533.00 402.00,532.24 402.00,531.48 C402.00,529.38 404.95,528.89 413.53,529.59 C416.13,529.80 417.91,529.93 419.19,529.93 C418.17,530.04 416.88,530.09 415.19,530.12 C411.51,530.18 407.15,530.55 405.50,530.92 C402.64,531.58 402.72,531.64 407.16,532.35 C409.73,532.76 412.06,533.72 412.36,534.48 C412.41,534.63 412.45,534.79 412.47,534.95 ZM 411.13 473.04 C410.80,466.95 411.02,459.00 411.92,459.00 C412.42,459.00 414.18,459.77 415.82,460.71 C416.88,461.32 417.63,461.68 418.23,461.81 C417.53,461.90 416.72,461.91 415.82,461.82 C412.62,461.51 412.51,461.63 411.84,466.00 C411.44,468.61 411.20,471.00 411.13,473.04 ZM 400.54 528.93 C399.73,530.24 395.33,530.35 394.55,529.08 C394.24,528.58 395.37,527.86 397.06,527.49 C400.40,526.75 401.58,527.25 400.54,528.93 ZM 312.18 413.94 C311.18,413.87 310.06,413.81 308.80,413.77 C303.41,413.59 301.55,413.55 300.63,414.32 C301.49,413.57 303.10,413.56 307.44,413.66 C308.92,413.70 310.54,413.80 312.18,413.94 ZM 300.44 420.92 C301.47,421.63 303.11,421.97 305.38,421.93 C304.85,421.98 304.42,422.00 304.12,422.00 C302.52,422.00 301.28,421.61 300.44,420.92 ZM 420.21 461.23 C420.27,461.19 420.33,461.14 420.40,461.09 C421.21,460.41 421.69,459.71 421.85,458.99 C421.78,459.92 421.21,460.71 420.21,461.23 ZM 410.71 538.62 C409.41,539.95 407.59,541.00 405.99,541.00 C407.45,541.00 409.33,539.92 410.71,538.62 ZM 423.40 527.84 C424.46,526.30 424.98,524.71 424.94,523.49 C424.99,524.71 424.49,526.29 423.44,527.78 C423.43,527.80 423.41,527.82 423.40,527.84 ZM 423.63 515.12 C422.75,516.89 421.28,517.89 415.97,519.58 C421.25,517.90 422.73,516.89 423.63,515.12 ZM 299.78 415.75 C299.73,415.89 299.68,416.03 299.62,416.19 C299.59,416.28 299.56,416.37 299.53,416.45 C299.56,416.37 299.59,416.28 299.62,416.19 C299.68,416.03 299.73,415.89 299.78,415.75 Z" fill="rgb(2,78,35)"/>
<path d="M 0.00 0.00 L 863.00 0.00 L 863.00 865.00 L 0.00 865.00 ZM 429.73 572.92 C439.94,571.79 450.02,568.96 463.98,563.33 C477.53,557.87 485.48,552.74 499.50,540.42 C512.80,528.72 516.54,524.35 526.21,509.20 C535.02,495.38 538.37,488.62 542.10,475.37 C541.38,478.15 543.07,474.77 544.86,469.67 C547.89,461.04 549.18,446.78 548.82,426.00 C548.51,408.27 548.36,407.03 545.09,396.25 C543.21,390.06 541.49,385.18 541.27,385.40 C541.09,385.58 541.50,387.64 542.23,390.34 C540.43,384.32 538.24,378.47 535.67,372.82 C536.86,375.12 537.69,376.60 537.79,376.51 C538.25,376.11 534.15,365.87 531.78,361.50 C528.00,354.51 510.94,332.74 503.96,326.00 C500.27,322.42 493.03,316.83 487.87,313.57 C482.72,310.32 477.60,306.88 476.50,305.94 C473.98,303.78 461.64,298.44 457.00,297.50 C452.79,296.64 453.83,297.84 458.46,299.70 C454.50,298.25 450.33,296.95 446.08,295.82 C450.13,296.75 453.00,297.22 453.00,296.91 C453.00,296.01 449.48,294.85 438.00,291.94 C427.11,289.18 403.26,287.98 401.91,290.12 C401.43,290.88 401.01,309.50 400.98,331.50 C400.94,366.89 400.77,371.28 399.47,369.56 C398.66,368.49 398.00,366.41 398.00,364.93 C398.00,360.70 395.87,359.67 388.24,360.22 C381.17,360.74 368.01,365.45 367.25,367.74 C367.05,368.33 368.25,368.15 370.35,367.30 C364.96,369.83 359.95,373.09 356.38,376.66 C346.11,386.93 341.05,399.57 341.03,415.00 C341.02,426.97 344.27,436.11 353.25,449.36 C357.29,455.31 360.10,460.88 361.89,466.58 C361.44,466.16 361.22,468.01 361.57,472.57 C362.77,488.11 363.63,489.09 375.50,488.34 C379.35,488.09 384.52,488.32 387.00,488.84 C390.17,489.50 390.70,489.81 388.81,489.89 C387.33,489.95 385.84,490.45 385.50,491.00 C385.16,491.55 382.81,492.00 380.27,492.00 C377.38,492.00 374.97,492.62 373.83,493.65 C371.36,495.89 371.40,501.61 373.88,503.16 C375.72,504.31 375.72,504.38 373.81,506.42 C372.28,508.05 371.98,509.37 372.44,512.50 C373.15,517.42 373.15,518.27 372.39,524.37 C371.94,527.92 372.15,529.48 373.14,530.11 C374.91,531.23 379.33,531.24 380.55,530.13 C381.78,529.01 390.89,525.99 392.93,526.03 C394.27,526.06 394.24,526.26 392.74,527.40 C391.09,528.65 391.09,528.83 392.66,530.12 C394.14,531.34 393.77,531.56 389.42,532.00 C385.22,532.43 384.45,532.84 384.17,534.81 C383.84,537.14 385.49,540.00 387.16,540.00 C387.67,540.00 387.61,539.14 387.04,538.07 C386.97,537.95 386.91,537.83 386.85,537.72 C387.06,538.05 387.31,538.42 387.59,538.82 C388.98,540.80 389.91,541.06 394.84,540.80 C397.85,540.64 399.26,540.55 399.97,540.01 C399.27,540.60 397.89,540.78 395.00,541.09 L 389.50 541.67 L 394.75 541.84 C397.64,541.93 400.00,542.45 400.00,543.00 C400.00,544.33 400.64,544.26 402.32,542.66 C401.38,547.47 401.18,571.51 402.19,572.73 C403.51,574.32 416.35,574.42 429.73,572.92 ZM 371.67 479.33 C371.30,478.97 371.00,477.49 371.00,476.04 C371.00,468.23 363.96,451.06 356.33,440.27 C350.92,432.62 349.11,427.66 348.37,418.54 C347.68,409.94 349.89,398.54 353.39,392.64 C354.75,390.36 358.98,385.29 362.80,381.37 C370.63,373.34 378.08,369.66 385.42,370.20 L 389.50 370.50 L 390.02 480.00 L 381.18 480.00 C376.31,480.00 372.03,479.70 371.67,479.33 ZM 409.61 442.99 C410.41,447.96 411.55,448.10 412.24,443.48 C412.17,446.23 412.78,448.33 414.17,450.22 C412.67,448.93 411.49,448.17 411.28,448.39 C410.97,448.70 412.84,451.04 415.44,453.60 C418.73,456.84 419.84,458.56 419.10,459.30 C418.37,460.03 417.28,459.99 415.48,459.17 C410.60,456.95 410.01,457.48 409.90,464.25 C409.81,469.72 408.37,477.70 408.10,474.19 C408.04,473.47 407.56,473.15 407.03,473.48 C405.30,474.55 404.83,469.51 405.34,455.36 C405.62,447.74 405.82,441.05 405.78,440.50 C405.75,439.95 405.55,424.09 405.33,405.25 L 405.33 404.80 C405.00,375.48 404.93,369.18 407.99,365.48 C408.85,364.45 409.94,363.62 411.34,362.55 C413.81,360.67 415.90,360.00 419.28,360.00 C425.19,360.00 428.48,361.29 433.03,365.41 C435.06,367.24 437.31,368.94 438.04,369.18 C438.79,369.43 439.09,370.32 438.74,371.22 C438.27,372.47 437.16,372.72 433.81,372.33 C427.55,371.61 427.00,371.32 427.00,368.65 C427.00,365.37 424.75,363.76 420.00,363.64 C416.91,363.56 415.40,364.15 413.31,366.24 C411.82,367.72 410.88,369.22 411.22,369.55 C411.56,369.89 412.77,369.23 413.92,368.08 C414.13,367.87 414.40,367.67 414.70,367.48 C414.27,367.82 413.83,368.23 413.38,368.73 C411.03,371.26 410.89,371.95 411.43,378.48 C411.62,380.85 411.76,382.57 411.84,384.23 C411.74,383.28 411.61,382.30 411.45,381.25 C410.23,373.40 409.03,376.90 409.12,388.00 C409.21,399.08 410.21,402.18 411.46,395.25 C411.65,394.17 411.80,393.14 411.90,392.12 C411.87,394.17 411.80,396.70 411.72,400.00 L 411.50 408.50 L 415.00 409.00 C419.35,409.62 420.58,413.38 416.81,414.53 C412.95,415.71 411.12,418.02 410.44,422.56 C409.92,426.04 410.19,427.42 411.91,429.88 C410.38,428.36 409.64,429.46 410.99,431.98 C411.91,433.69 411.82,434.63 410.56,436.55 C409.43,438.28 409.16,440.13 409.61,442.99 ZM 452.87 383.36 C452.94,383.97 452.97,384.59 452.98,385.22 C452.99,387.12 453.42,388.68 454.44,390.30 C453.70,389.50 453.07,389.00 452.67,389.00 C452.41,389.00 452.27,390.44 452.35,392.19 C452.49,395.08 452.22,395.39 449.57,395.44 C447.12,395.49 446.50,396.04 445.79,398.75 C445.32,400.54 444.68,402.00 444.35,402.00 C444.03,402.00 442.23,400.65 440.35,399.00 C438.47,397.35 436.38,396.00 435.72,396.00 C435.08,396.01 435.73,396.94 437.15,398.12 C435.97,397.60 434.35,397.29 432.14,397.03 C431.42,396.95 430.82,396.88 430.31,396.80 C430.73,396.48 430.73,395.76 430.38,394.39 C429.95,392.67 430.20,391.47 431.11,390.85 C431.56,390.55 431.75,390.35 431.67,390.23 C431.86,390.22 432.07,390.21 432.28,390.19 C435.07,390.02 438.29,390.50 439.99,391.35 C443.18,392.93 444.18,392.37 445.43,388.30 C446.22,385.71 445.10,381.16 443.30,378.36 C443.89,379.13 444.35,380.00 444.69,381.00 C445.64,383.79 445.90,384.02 445.94,382.16 C445.97,380.87 445.09,378.65 443.97,377.24 C441.72,374.37 442.61,372.42 445.72,373.41 C447.65,374.02 451.00,379.81 451.00,382.53 C451.00,383.34 451.45,384.00 452.00,384.00 C452.47,384.00 452.76,383.79 452.87,383.36 ZM 422.96 480.36 C425.52,479.85 426.76,478.98 426.67,477.72 C426.85,478.99 425.90,479.89 423.81,480.33 C422.16,480.68 422.36,480.77 424.50,480.66 C429.06,480.42 429.23,476.46 424.85,472.86 C420.34,469.18 421.78,467.84 428.85,469.14 C433.49,470.00 434.47,469.88 436.21,468.31 C438.33,466.40 441.63,459.88 442.19,456.51 C442.55,454.34 445.65,453.25 447.17,454.77 C448.85,456.45 441.97,468.28 438.31,470.00 C435.15,471.48 432.11,475.44 433.25,476.58 C433.57,476.90 434.73,476.34 435.82,475.33 C436.05,475.12 436.31,474.89 436.61,474.64 C434.61,476.50 434.00,478.03 434.00,480.28 C434.00,480.89 433.92,481.58 433.78,482.28 C434.19,480.11 434.01,478.00 433.06,478.00 C432.54,478.00 431.98,479.69 431.81,481.75 L 431.50 485.50 L 423.25 485.79 C418.70,485.95 415.00,485.67 415.00,485.16 C415.00,483.91 417.08,482.32 419.50,481.72 C420.60,481.45 419.68,481.18 417.45,481.12 C416.54,481.09 415.60,480.97 414.77,480.80 C416.84,481.13 419.80,480.99 422.96,480.36 ZM 446.04 432.20 L 443.34 428.99 C446.27,432.46 446.96,431.40 444.35,427.41 C443.17,425.61 443.01,424.59 443.78,423.82 C445.45,422.15 447.67,423.52 450.47,427.95 C451.88,430.18 453.47,432.06 454.01,432.12 C454.56,432.19 455.45,432.36 456.00,432.50 C456.55,432.64 457.39,432.81 457.87,432.88 C459.40,433.09 460.08,440.98 458.94,445.22 C457.66,449.99 452.43,455.83 450.86,454.26 C450.17,453.57 450.67,451.60 452.42,448.15 C455.08,442.90 455.78,437.60 453.96,436.47 C453.38,436.12 451.32,437.04 449.37,438.53 C445.35,441.59 442.97,440.79 444.97,437.05 C446.58,434.04 445.89,432.85 444.36,434.92 ZM 319.29 374.05 C319.92,374.07 321.46,374.43 323.41,374.98 C323.63,375.07 323.86,375.15 324.09,375.23 C324.35,375.32 324.60,375.40 324.83,375.48 C326.91,376.20 327.99,376.58 328.78,376.69 C329.02,376.77 329.26,376.86 329.50,376.94 L 330.01 377.12 C337.13,379.65 338.45,380.11 339.03,379.65 C339.18,379.54 339.28,379.36 339.41,379.15 C340.08,378.06 326.57,366.32 322.18,364.18 C319.21,362.73 318.59,362.72 316.18,364.07 C314.71,364.89 313.37,366.46 313.21,367.55 C312.84,370.12 316.45,373.98 319.29,374.05 ZM 460.89 402.43 C460.97,403.07 461.00,403.72 461.00,404.39 C461.00,406.58 461.83,408.43 463.51,410.01 C464.35,410.80 465.07,411.71 465.66,412.71 C465.58,412.58 465.49,412.46 465.40,412.34 C462.28,408.15 460.61,408.33 463.47,412.54 C466.14,416.49 466.63,420.21 465.02,424.43 C463.65,428.05 461.90,427.63 462.16,423.75 C462.28,421.94 461.56,419.26 460.54,417.71 C459.09,415.48 458.08,414.97 455.61,415.21 C452.32,415.52 451.80,414.16 453.43,409.50 C453.81,408.40 453.21,409.08 452.10,411.00 C451.67,411.76 451.30,412.42 451.01,413.01 C451.28,412.43 451.61,411.77 452.00,411.00 C455.36,404.42 454.32,398.00 449.89,398.00 C452.52,398.00 453.99,400.05 454.14,403.95 L 454.28 407.50 L 454.89 403.58 C455.57,399.23 457.83,397.63 458.68,400.89 C459.20,402.86 460.58,403.61 460.89,402.43 ZM 312.18 413.94 L 312.17 413.94 C310.54,413.80 308.92,413.70 307.44,413.66 C303.10,413.56 301.49,413.57 300.63,414.32 C300.25,414.64 300.03,415.10 299.78,415.75 C299.73,415.89 299.68,416.03 299.62,416.19 C299.59,416.28 299.56,416.37 299.53,416.45 L 299.53 416.45 C298.85,418.54 299.15,420.02 300.44,420.92 C301.28,421.61 302.52,422.00 304.12,422.00 C304.42,422.00 304.85,421.98 305.38,421.93 C307.30,421.89 309.66,421.59 312.45,421.02 C313.70,420.83 314.99,420.62 316.25,420.40 C325.95,418.73 327.00,418.40 327.00,417.05 C327.00,416.17 320.65,414.84 314.10,414.13 C313.52,414.06 312.88,414.00 312.18,413.94 ZM 367.00 348.13 C367.00,345.77 362.07,332.57 360.31,330.21 C358.52,327.82 357.97,327.63 355.40,328.52 C353.19,329.29 352.43,330.25 352.22,332.52 C351.99,335.00 353.04,336.64 358.41,342.25 C364.39,348.50 367.00,350.29 367.00,348.13 ZM 422.93 503.07 C422.52,503.52 421.92,503.72 421.00,503.84 C419.62,504.03 414.90,505.21 410.50,506.47 C404.02,508.33 402.44,509.17 402.18,510.88 C402.17,510.96 402.16,511.03 402.15,511.10 C402.13,511.19 402.12,511.28 402.11,511.36 C402.12,511.22 402.14,511.08 402.16,510.92 C402.38,509.40 403.37,508.37 405.00,507.98 C407.49,507.39 407.49,507.38 405.25,506.79 C402.95,506.17 402.32,503.62 403.86,501.19 C404.82,499.68 418.78,495.98 420.71,496.72 C422.75,497.50 422.21,500.73 419.75,502.51 L 417.50 504.12 L 420.50 503.81 C421.73,503.68 422.47,503.53 422.93,503.07 ZM 402.73 512.81 C403.70,512.85 405.92,512.16 410.71,510.66 L 411.52 510.41 C413.22,509.88 414.91,509.41 416.42,509.03 C415.94,509.16 415.46,509.31 415.00,509.47 C411.21,510.74 411.05,510.88 414.00,510.38 C419.06,509.51 421.21,509.73 422.14,511.20 C423.34,513.09 422.70,514.27 419.42,516.19 C416.05,518.16 405.66,520.02 403.95,518.97 C402.29,517.95 404.35,514.44 407.78,512.46 C409.27,511.58 409.67,511.13 408.66,511.44 C405.26,512.49 403.54,512.96 402.73,512.81 ZM 506.42 427.39 C502.90,428.74 496.28,427.40 495.04,425.08 C494.21,423.53 494.78,423.13 499.46,422.01 C502.41,421.30 505.54,420.99 506.42,421.33 C508.47,422.12 508.47,426.61 506.42,427.39 ZM 458.20 342.31 C456.65,343.79 455.10,345.00 454.75,345.00 C452.09,345.00 453.01,337.20 456.00,334.50 C457.61,333.05 458.24,332.95 459.48,333.98 C461.82,335.92 461.29,339.35 458.20,342.31 ZM 497.85 375.53 C497.82,375.49 497.78,375.45 497.74,375.40 C497.38,375.05 496.37,375.49 495.48,376.38 C492.17,379.69 485.52,379.68 486.18,376.37 C486.69,373.78 492.89,370.87 495.24,372.13 C496.27,372.68 497.41,372.85 497.80,372.53 C497.93,372.99 498.00,373.48 498.00,374.01 C498.00,374.57 497.96,375.07 497.85,375.53 ZM 410.26 485.29 C408.74,485.58 406.54,486.12 405.36,486.49 C402.20,487.50 401.57,485.41 404.00,481.99 C405.98,479.21 409.00,477.91 409.00,479.84 C409.00,480.30 410.15,481.20 411.56,481.84 C414.59,483.23 414.08,484.57 410.26,485.29 ZM 411.59 329.49 C410.92,332.19 408.24,332.34 407.42,329.73 C407.08,328.67 407.10,325.80 407.47,323.34 C407.99,319.90 408.52,318.95 409.82,319.20 C411.62,319.54 412.62,325.38 411.59,329.49 ZM 401.00 393.42 C401.00,399.33 400.61,403.00 399.97,403.00 C398.27,403.00 397.89,400.74 398.21,392.49 C398.40,387.34 398.93,384.52 399.75,384.25 C400.69,383.94 401.00,386.20 401.00,393.42 ZM 401.00 431.00 C401.00,438.71 399.88,441.42 398.63,436.75 C397.85,433.82 397.83,426.60 398.61,424.58 C400.02,420.90 401.00,423.53 401.00,431.00 ZM 401.00 465.38 C401.00,469.02 400.86,472.00 400.70,472.00 C397.94,472.00 396.95,462.12 399.50,460.00 C400.81,458.91 401.00,459.60 401.00,465.38 ZM 403.62 541.32 C404.38,540.40 404.23,540.00 403.28,539.40 C401.36,538.18 402.70,535.00 405.14,535.00 C407.30,535.00 409.01,538.16 407.18,538.77 C405.76,539.25 405.69,540.54 406.79,540.91 C406.51,540.97 406.24,541.00 405.99,541.00 C405.12,541.00 404.27,541.12 403.62,541.32 ZM 461.43 432.11 C460.70,433.29 459.27,433.24 458.50,432.00 C457.42,430.26 459.02,428.77 460.58,430.06 C461.35,430.70 461.73,431.63 461.43,432.11 ZM 460.71 300.54 C471.64,304.51 483.01,311.30 493.63,319.81 C487.14,314.75 480.14,310.14 472.67,306.05 C469.05,304.06 465.01,302.21 460.71,300.54 ZM 441.02 294.58 C433.36,292.85 425.54,291.71 418.15,291.33 C427.16,291.77 433.26,292.63 441.02,294.58 ZM 496.26 377.91 C494.50,379.38 491.04,380.90 484.44,383.50 C483.12,384.02 481.96,384.47 480.95,384.86 C477.61,386.16 475.85,386.76 474.94,386.87 C474.15,386.96 474.00,386.69 474.00,386.18 C474.00,386.68 474.17,386.95 474.94,386.87 C475.84,386.75 477.60,386.15 480.95,384.86 C482.22,384.36 483.71,383.77 485.48,383.06 C490.74,380.95 494.33,379.24 496.26,377.91 ZM 428.29 375.66 C431.63,374.11 434.08,373.74 436.81,374.49 C434.13,373.98 431.28,374.37 428.29,375.66 ZM 467.07 415.99 C468.22,419.93 467.84,424.56 465.90,428.70 C467.66,424.79 468.08,419.83 467.07,415.99 ZM 542.35 474.50 C542.34,474.53 542.33,474.56 542.32,474.60 C542.92,472.43 543.53,470.09 544.18,467.53 C544.83,464.95 545.35,462.77 545.77,460.72 C544.99,465.05 543.90,469.30 542.35,474.50 ZM 439.22 400.01 C440.15,401.19 440.07,402.43 439.61,405.86 C439.34,407.93 439.24,409.95 439.33,411.11 C439.17,410.18 439.27,408.71 439.55,406.22 C439.89,403.29 439.87,401.35 439.22,400.01 ZM 456.62 393.07 C458.35,395.18 459.53,397.20 460.22,399.31 C459.40,397.44 458.01,395.07 456.62,393.07 ZM 492.64 369.00 C491.61,369.11 486.87,373.06 482.43,377.15 C486.88,373.00 491.59,369.00 492.44,369.00 C492.51,369.00 492.58,369.00 492.64,369.00 ZM 419.53 366.00 C421.60,365.75 423.57,365.91 424.31,366.64 C423.96,366.29 421.92,366.00 419.79,366.00 C419.70,366.00 419.62,366.00 419.53,366.00 ZM 373.11 366.09 C379.49,363.30 386.80,361.80 392.20,362.19 L 396.50 362.50 L 391.74 362.19 C386.44,361.86 379.64,363.40 373.11,366.09 ZM 413.09 437.55 C413.22,436.75 413.35,436.04 413.45,435.50 C413.64,434.53 413.64,433.59 413.48,432.74 C413.80,433.76 413.80,434.72 413.52,435.80 C413.36,436.41 413.22,436.99 413.09,437.55 ZM 543.42 394.51 C545.47,401.80 546.73,408.40 547.35,415.91 C546.73,408.61 545.48,402.09 543.42,394.51 ZM 496.55 370.45 C495.58,369.77 494.26,369.17 493.16,369.03 C494.55,369.16 495.72,369.66 496.55,370.45 ZM 419.77 508.30 C420.63,508.16 421.26,508.10 421.55,508.16 C422.76,508.40 423.63,509.41 424.04,510.72 C423.61,509.40 422.68,508.41 421.39,508.23 C421.04,508.18 420.47,508.21 419.77,508.30 ZM 421.85 458.55 C421.86,458.70 421.86,458.85 421.85,458.99 C421.69,459.71 421.21,460.41 420.40,461.09 C421.11,460.49 421.61,459.50 421.85,458.55 ZM 451.10 377.42 C450.83,376.82 450.53,376.24 450.21,375.69 C451.03,377.00 451.69,378.42 452.16,379.91 C451.88,379.19 451.53,378.36 451.10,377.42 ZM 444.36 410.96 C445.79,409.11 447.04,406.25 447.49,403.06 C447.05,406.29 445.82,409.18 444.36,410.96 ZM 418.25 453.95 C418.35,454.02 418.45,454.09 418.55,454.16 C419.20,454.60 419.75,455.06 420.20,455.51 C419.69,455.15 419.01,454.61 418.25,453.95 ZM 410.71 538.62 C410.67,538.66 410.62,538.70 410.57,538.74 C411.34,537.87 412.00,536.90 412.33,536.12 C412.06,536.95 411.47,537.83 410.71,538.62 ZM 450.22 415.12 C449.96,416.50 450.58,417.24 452.06,418.03 C450.50,417.20 449.89,416.59 450.22,415.12 ZM 386.50 534.78 C387.31,534.12 389.44,534.00 393.56,534.00 C389.62,534.00 387.40,534.15 386.50,534.78 ZM 442.89 437.38 C442.18,438.85 442.49,439.38 443.89,441.11 C442.47,439.36 442.13,438.89 442.89,437.38 ZM 427.76 391.35 C427.92,391.05 428.16,390.84 428.54,390.69 C428.24,390.87 427.98,391.09 427.76,391.35 ZM 412.47 534.95 L 412.47 534.95 C412.46,534.94 412.45,534.92 412.45,534.91 C412.45,534.92 412.46,534.94 412.47,534.95 Z" fill="rgb(3,249,137)"/>
<path d="M 400.00 543.00 C400.00,542.45 397.64,541.93 394.75,541.84 L 389.50 541.67 L 395.00 541.09 C400.33,540.52 400.51,540.40 400.81,537.25 L 401.13 534.00 L 393.56 534.00 C385.78,534.00 385.09,534.43 387.04,538.07 C387.61,539.14 387.67,540.00 387.16,540.00 C385.49,540.00 383.84,537.14 384.17,534.81 C384.45,532.84 385.22,532.43 389.42,532.00 C393.77,531.56 394.14,531.34 392.66,530.12 C391.09,528.83 391.09,528.65 392.74,527.40 C394.24,526.26 394.27,526.06 392.93,526.03 C390.89,525.99 381.78,529.01 380.55,530.13 C379.33,531.24 374.91,531.23 373.14,530.11 C372.15,529.48 371.94,527.92 372.39,524.37 C373.15,518.27 373.15,517.42 372.44,512.50 C371.98,509.37 372.28,508.05 373.81,506.42 C375.72,504.38 375.72,504.31 373.88,503.16 C371.40,501.61 371.36,495.89 373.83,493.65 C374.97,492.62 377.38,492.00 380.27,492.00 C382.81,492.00 385.16,491.55 385.50,491.00 C385.84,490.45 387.33,489.95 388.81,489.89 C390.70,489.81 390.17,489.50 387.00,488.84 C384.52,488.32 379.35,488.09 375.50,488.34 C363.63,489.09 362.77,488.11 361.57,472.57 C360.83,462.87 362.63,465.45 363.94,475.96 C364.52,480.62 365.56,484.97 366.25,485.63 C367.09,486.44 372.92,486.94 384.00,487.17 L 400.50 487.50 L 400.80 484.38 C401.04,481.94 400.66,481.15 399.06,480.73 C397.03,480.20 397.01,479.68 396.76,421.35 L 396.50 362.50 L 392.20 362.19 C386.53,361.78 378.76,363.46 372.17,366.51 C368.96,368.00 367.00,368.49 367.25,367.74 C368.01,365.45 381.17,360.74 388.24,360.22 C395.87,359.67 398.00,360.70 398.00,364.93 C398.00,366.41 398.66,368.49 399.47,369.56 C400.77,371.28 400.94,366.89 400.98,331.50 C401.01,309.50 401.43,290.88 401.91,290.12 C403.26,287.98 427.11,289.18 438.00,291.94 C449.48,294.85 453.00,296.01 453.00,296.91 C453.00,297.32 447.94,296.36 441.75,294.77 C433.41,292.63 427.10,291.73 417.36,291.30 C405.11,290.75 404.16,290.84 403.20,292.63 C401.77,295.29 401.55,480.00 402.98,480.00 C403.66,480.00 404.00,461.99 404.00,425.47 C404.00,366.30 403.98,366.52 409.51,362.17 C416.61,356.58 426.34,357.11 433.00,363.44 C434.92,365.27 438.16,367.29 440.19,367.94 C445.39,369.60 448.95,372.69 451.10,377.42 C453.19,382.03 453.46,384.00 452.00,384.00 C451.45,384.00 451.00,383.34 451.00,382.53 C451.00,379.81 447.65,374.02 445.72,373.41 C442.61,372.42 441.72,374.37 443.97,377.24 C445.09,378.65 445.97,380.87 445.94,382.16 C445.90,384.02 445.64,383.79 444.69,381.00 C443.88,378.62 442.38,376.94 440.00,375.75 C435.22,373.36 432.14,373.55 426.44,376.58 C421.86,379.02 421.52,379.06 420.30,377.39 C418.50,374.93 418.60,374.52 421.98,370.68 C423.61,368.81 424.66,367.00 424.31,366.64 C422.78,365.11 415.94,366.06 413.92,368.08 C412.77,369.23 411.56,369.89 411.22,369.55 C410.88,369.22 411.82,367.72 413.31,366.24 C415.40,364.15 416.91,363.56 420.00,363.64 C424.75,363.76 427.00,365.37 427.00,368.65 C427.00,371.32 427.55,371.61 433.81,372.33 C437.16,372.72 438.27,372.47 438.74,371.22 C439.09,370.32 438.79,369.43 438.04,369.18 C437.31,368.94 435.06,367.24 433.03,365.41 C428.48,361.29 425.19,360.00 419.28,360.00 C415.90,360.00 413.81,360.67 411.34,362.55 C404.88,367.48 404.91,367.31 405.33,405.25 C405.55,424.09 405.75,439.95 405.78,440.50 C405.82,441.05 405.62,447.74 405.34,455.36 C404.83,469.51 405.30,474.55 407.03,473.48 C407.56,473.15 408.04,473.47 408.10,474.19 C408.37,477.70 409.81,469.72 409.90,464.25 C410.01,457.48 410.60,456.95 415.48,459.17 C417.28,459.99 418.37,460.03 419.10,459.30 C419.84,458.56 418.73,456.84 415.44,453.60 C412.84,451.04 410.97,448.70 411.28,448.39 C411.58,448.09 413.72,449.67 416.04,451.92 C418.35,454.16 420.64,456.00 421.12,456.00 C422.61,456.00 422.09,459.68 420.40,461.09 C419.05,462.20 418.32,462.14 415.82,460.71 C414.18,459.77 412.42,459.00 411.92,459.00 C410.51,459.00 410.77,478.37 412.20,479.80 C412.86,480.46 415.22,481.05 417.45,481.12 C419.68,481.18 420.60,481.45 419.50,481.72 C417.08,482.32 415.00,483.91 415.00,485.16 C415.00,485.67 418.70,485.95 423.25,485.79 L 431.50 485.50 L 431.81 481.75 C431.98,479.69 432.54,478.00 433.06,478.00 C434.57,478.00 434.14,483.35 432.44,485.78 C430.96,487.89 430.22,488.00 416.94,488.00 L 403.00 488.00 L 403.00 490.42 C403.00,491.75 403.51,493.00 404.14,493.21 C404.95,493.48 404.89,494.21 403.92,495.75 C403.18,496.94 402.78,498.11 403.04,498.36 C403.29,498.60 407.77,497.75 413.00,496.45 C418.23,495.16 422.87,494.47 423.32,494.92 C423.77,495.37 423.99,497.48 423.82,499.62 C423.53,503.11 423.20,503.53 420.50,503.81 L 417.50 504.12 L 419.75 502.51 C422.21,500.73 422.75,497.50 420.71,496.72 C418.78,495.98 404.82,499.68 403.86,501.19 C402.32,503.62 402.95,506.17 405.25,506.79 C407.49,507.38 407.49,507.39 405.00,507.98 C403.37,508.37 402.38,509.40 402.16,510.92 C401.81,513.36 402.31,513.40 408.66,511.44 C409.67,511.13 409.27,511.58 407.78,512.46 C404.35,514.44 402.29,517.95 403.95,518.97 C405.66,520.02 416.05,518.16 419.42,516.19 C422.70,514.27 423.34,513.09 422.14,511.20 C421.21,509.73 419.06,509.51 414.00,510.38 C411.05,510.88 411.21,510.74 415.00,509.47 C417.48,508.63 420.35,508.08 421.39,508.23 C423.94,508.60 425.11,512.14 423.65,515.07 C422.45,517.47 420.27,518.46 409.25,521.56 C405.56,522.60 403.00,523.87 403.00,524.66 C403.00,526.52 404.42,526.37 414.06,523.48 C418.68,522.10 423.04,521.18 423.73,521.45 C425.49,522.13 425.32,525.10 423.36,527.90 C421.78,530.15 421.34,530.22 413.53,529.59 C404.95,528.89 402.00,529.38 402.00,531.48 C402.00,532.24 403.98,533.00 406.96,533.40 C409.69,533.76 412.16,534.44 412.45,534.91 C413.19,536.11 409.16,541.00 407.43,541.00 C405.71,541.00 405.52,539.33 407.18,538.77 C409.01,538.16 407.30,535.00 405.14,535.00 C402.70,535.00 401.36,538.18 403.28,539.40 C404.47,540.15 404.40,540.60 402.85,542.15 C400.77,544.23 400.00,544.46 400.00,543.00 ZM 400.54 528.93 C401.58,527.25 400.40,526.75 397.06,527.49 C395.37,527.86 394.24,528.58 394.55,529.08 C395.33,530.35 399.73,530.24 400.54,528.93 ZM 389.50 525.68 L 400.50 522.38 L 400.81 518.19 C401.17,513.25 400.92,513.19 391.86,515.91 C388.36,516.96 382.91,518.55 379.75,519.44 C374.24,520.99 374.00,521.19 374.00,524.36 C374.00,530.11 374.56,530.15 389.50,525.68 ZM 386.76 512.86 C401.07,508.69 401.00,508.73 401.00,503.89 C401.00,499.85 400.99,499.84 397.75,500.53 C395.96,500.91 390.00,502.65 384.50,504.40 C375.21,507.36 374.48,507.79 374.18,510.38 C373.85,513.21 374.49,516.00 375.48,516.00 C375.77,516.00 380.85,514.59 386.76,512.86 ZM 387.05 499.02 C392.25,497.38 397.29,496.03 398.25,496.02 C399.21,496.01 400.00,495.33 400.00,494.50 C400.00,493.25 397.97,493.00 387.70,493.00 C374.12,493.00 373.00,493.43 373.00,498.70 C373.00,502.95 374.50,502.98 387.05,499.02 ZM 410.26 485.29 C414.08,484.57 414.59,483.23 411.56,481.84 C410.15,481.20 409.00,480.30 409.00,479.84 C409.00,477.91 405.98,479.21 404.00,481.99 C401.57,485.41 402.20,487.50 405.36,486.49 C406.54,486.12 408.74,485.58 410.26,485.29 ZM 401.00 465.38 C401.00,459.60 400.81,458.91 399.50,460.00 C396.95,462.12 397.94,472.00 400.70,472.00 C400.86,472.00 401.00,469.02 401.00,465.38 ZM 401.00 431.00 C401.00,423.53 400.02,420.90 398.61,424.58 C397.83,426.60 397.85,433.82 398.63,436.75 C399.88,441.42 401.00,438.71 401.00,431.00 ZM 401.00 393.42 C401.00,386.20 400.69,383.94 399.75,384.25 C398.93,384.52 398.40,387.34 398.21,392.49 C397.89,400.74 398.27,403.00 399.97,403.00 C400.61,403.00 401.00,399.33 401.00,393.42 ZM 423.81 480.33 C427.73,479.51 427.65,477.05 423.59,473.63 C420.80,471.28 420.04,470.04 420.58,468.65 C421.21,467.01 422.02,466.88 427.61,467.48 C433.50,468.11 434.11,467.98 436.47,465.62 C438.65,463.44 439.00,462.21 439.00,456.67 C439.00,449.42 440.45,447.10 443.85,448.92 C444.94,449.50 446.02,450.54 446.27,451.24 C447.30,454.18 454.00,445.35 454.00,441.05 C454.00,438.41 452.65,438.46 448.87,441.25 L 445.83 443.50 L 443.92 441.15 C442.09,438.89 442.08,438.66 443.74,435.86 C445.68,432.58 446.79,433.66 444.97,437.05 C442.97,440.79 445.35,441.59 449.37,438.53 C451.32,437.04 453.38,436.12 453.96,436.47 C455.78,437.60 455.08,442.90 452.42,448.15 C450.67,451.60 450.17,453.57 450.86,454.26 C452.43,455.83 457.66,449.99 458.94,445.22 C460.08,440.98 459.40,433.09 457.87,432.88 C457.39,432.81 456.55,432.64 456.00,432.50 C455.45,432.36 454.56,432.19 454.01,432.12 C453.47,432.06 451.88,430.18 450.47,427.95 C447.67,423.52 445.45,422.15 443.78,423.82 C443.01,424.59 443.17,425.61 444.35,427.41 C446.97,431.41 446.27,432.47 443.32,428.97 C440.11,425.15 441.01,422.67 445.79,422.19 C448.48,421.92 449.17,422.40 451.19,425.93 C453.79,430.49 455.11,430.89 458.00,428.00 C462.08,423.92 459.77,414.46 455.55,417.96 C454.50,418.83 453.59,418.85 452.06,418.03 C449.52,416.67 449.53,415.47 452.10,411.00 C453.21,409.08 453.81,408.40 453.43,409.50 C451.80,414.16 452.32,415.52 455.61,415.21 C458.08,414.97 459.09,415.48 460.54,417.71 C461.56,419.26 462.28,421.94 462.16,423.75 C461.90,427.63 463.65,428.05 465.02,424.43 C466.63,420.21 466.14,416.49 463.47,412.54 C460.61,408.33 462.28,408.15 465.40,412.34 C468.59,416.61 468.28,425.46 464.75,430.80 C463.24,433.09 462.00,436.34 462.00,438.04 C462.00,445.62 459.95,449.88 453.48,455.79 C450.04,458.93 446.27,463.39 445.11,465.70 C443.96,468.01 441.84,470.71 440.41,471.70 C438.98,472.69 436.91,474.33 435.82,475.33 C434.73,476.34 433.57,476.90 433.25,476.58 C432.11,475.44 435.15,471.48 438.31,470.00 C441.97,468.28 448.85,456.45 447.17,454.77 C445.65,453.25 442.55,454.34 442.19,456.51 C441.63,459.88 438.33,466.40 436.21,468.31 C434.47,469.88 433.49,470.00 428.85,469.14 C421.78,467.84 420.34,469.18 424.85,472.86 C429.23,476.46 429.06,480.42 424.50,480.66 C422.36,480.77 422.16,480.68 423.81,480.33 ZM 461.43 432.11 C461.73,431.63 461.35,430.70 460.58,430.06 C459.02,428.77 457.42,430.26 458.50,432.00 C459.27,433.24 460.70,433.29 461.43,432.11 ZM 542.35 474.50 C546.21,461.52 547.23,454.47 547.72,437.38 C548.28,417.98 547.07,406.83 542.88,392.65 C541.77,388.89 541.04,385.62 541.27,385.40 C541.49,385.18 543.21,390.06 545.09,396.25 C548.36,407.03 548.51,408.27 548.82,426.00 C549.18,446.78 547.89,461.04 544.86,469.67 C542.91,475.22 541.09,478.73 542.35,474.50 ZM 409.61 442.99 C409.16,440.13 409.43,438.28 410.56,436.55 C411.82,434.63 411.91,433.69 410.99,431.98 C409.47,429.15 410.60,428.11 412.52,430.57 C413.49,431.81 413.82,433.58 413.45,435.50 C413.13,437.15 412.63,440.41 412.33,442.75 C411.66,448.10 410.45,448.21 409.61,442.99 ZM 493.00 428.12 C487.77,427.21 483.59,426.06 483.70,425.55 C483.92,424.57 501.06,420.04 504.67,420.01 C508.52,419.99 510.00,421.11 510.00,424.04 C510.00,427.45 507.64,430.04 504.68,429.88 C503.48,429.82 498.23,429.03 493.00,428.12 ZM 506.42 427.39 C508.47,426.61 508.47,422.12 506.42,421.33 C505.54,420.99 502.41,421.30 499.46,422.01 C494.78,423.13 494.21,423.53 495.04,425.08 C496.28,427.40 502.90,428.74 506.42,427.39 ZM 439.52 412.03 C439.19,411.50 439.23,408.72 439.61,405.86 C440.27,400.94 440.14,400.53 437.40,398.33 C435.81,397.05 435.05,396.01 435.72,396.00 C436.38,396.00 438.47,397.35 440.35,399.00 C442.23,400.65 444.03,402.00 444.35,402.00 C444.68,402.00 445.32,400.54 445.79,398.75 C446.50,396.04 447.12,395.49 449.57,395.44 C452.22,395.39 452.49,395.08 452.35,392.19 C452.27,390.44 452.41,389.00 452.67,389.00 C454.44,389.00 460.85,398.86 460.95,401.75 C461.03,403.82 459.27,403.16 458.68,400.89 C457.83,397.63 455.57,399.23 454.89,403.58 L 454.28 407.50 L 454.14 403.95 C453.99,400.05 452.52,398.00 449.89,398.00 C448.61,398.00 448.02,399.22 447.50,402.98 C446.54,410.01 441.68,415.52 439.52,412.03 ZM 409.12 388.00 C409.03,376.90 410.23,373.40 411.45,381.25 C412.29,386.73 412.30,390.59 411.46,395.25 C410.21,402.18 409.21,399.08 409.12,388.00 ZM 427.38 395.56 C426.34,392.83 427.48,390.50 430.01,390.21 C431.82,389.99 432.12,390.17 431.11,390.85 C430.20,391.47 429.95,392.67 430.38,394.39 C430.88,396.36 430.66,397.00 429.49,397.00 C428.63,397.00 427.69,396.35 427.38,395.56 ZM 474.00 386.18 C474.00,384.48 490.83,369.00 492.69,369.00 C495.00,369.00 498.77,371.56 497.83,372.50 C497.47,372.86 496.30,372.70 495.24,372.13 C492.89,370.87 486.69,373.78 486.18,376.37 C485.52,379.68 492.17,379.69 495.48,376.38 C496.37,375.49 497.38,375.05 497.74,375.40 C499.05,376.72 495.04,379.23 485.48,383.06 C475.15,387.20 474.00,387.51 474.00,386.18 ZM 533.20 367.83 C519.45,339.22 488.49,310.54 460.50,300.47 C454.20,298.20 452.23,296.53 457.00,297.50 C461.64,298.44 473.98,303.78 476.50,305.94 C477.60,306.88 482.72,310.32 487.87,313.57 C493.03,316.83 500.27,322.42 503.96,326.00 C510.94,332.74 528.00,354.51 531.78,361.50 C534.15,365.87 538.25,376.11 537.79,376.51 C537.63,376.65 535.57,372.74 533.20,367.83 ZM 448.04 355.00 C448.03,352.44 451.82,339.68 454.07,334.74 C455.73,331.10 461.60,330.74 462.88,334.21 C464.10,337.50 463.37,339.09 457.65,345.65 C454.79,348.93 451.46,352.94 450.26,354.56 L 448.06 357.50 L 448.04 355.00 ZM 458.20 342.31 C461.29,339.35 461.82,335.92 459.48,333.98 C458.24,332.95 457.61,333.05 456.00,334.50 C453.01,337.20 452.09,345.00 454.75,345.00 C455.10,345.00 456.65,343.79 458.20,342.31 ZM 407.14 335.60 C403.56,321.32 404.49,316.47 410.69,317.18 C413.14,317.46 413.54,317.98 413.81,321.22 C414.18,325.66 411.51,341.89 410.20,343.20 C409.64,343.76 408.45,340.82 407.14,335.60 ZM 411.59 329.49 C412.62,325.38 411.62,319.54 409.82,319.20 C408.52,318.95 407.99,319.90 407.47,323.34 C407.10,325.80 407.08,328.67 407.42,329.73 C408.24,332.34 410.92,332.19 411.59,329.49 Z" fill="rgb(25,206,125)"/>
</g>
</svg>